      <svg viewBox="0 0 108 24">
        <path
          fill="#C2DF0A"
          d="M43.017 9.76v-9h8.96v4.5a4.466 4.466 0 0 1-1.306 3.177 4.496 4.496 0 0 1-3.179 1.322h-4.475Zm17.991 4.5a4.52 4.52 0 0 0-3.183 1.322 4.49 4.49 0 0 0-1.312 3.177v4.49h8.96v-9l-4.465.01Z"
        />
        <path
          fill="#00B0CA"
          d="M17.881 3.16h-.08C16.988 1.78 14.931 0 11.26 0 5.289 0 0 4.61 0 12c0 6.43 4.154 12 11.259 12 2.629 0 5.408-1 6.542-3.2h.08v2.43h6.693V.77h-6.693v2.39Zm-5.619 14.57A5.616 5.616 0 0 1 8.3 16.053a5.577 5.577 0 0 1-1.597-3.983c0-2.56 1.686-5.8 5.529-5.8a5.556 5.556 0 0 1 4.065 1.65A5.516 5.516 0 0 1 17.881 12a5.523 5.523 0 0 1-1.58 4.063 5.561 5.561 0 0 1-4.039 1.667Zm88.403-17v2.43h-.08C99.782 1.78 97.725 0 94.053 0c-6.02 0-11.259 4.61-11.259 12 0 6.43 4.154 12 11.259 12 2.619 0 5.408-1 6.532-3.2h.08v2.43h6.703V.77l-6.703-.04Zm-5.599 17a5.626 5.626 0 0 1-3.972-1.673 5.587 5.587 0 0 1-1.607-3.987 5.56 5.56 0 0 1 1.612-3.949 5.599 5.599 0 0 1 7.904-.05A5.56 5.56 0 0 1 100.666 12a5.513 5.513 0 0 1-1.57 4.058 5.552 5.552 0 0 1-4.029 1.672Zm-43.098.88v4.64h-8.95v-1.88c-1.445 2.37-3.944 2.63-5.54 2.63-1.364 0-4.585-.33-6.562-2.83-1.786-2.23-2.007-3.85-2.007-6.92V.77h6.693v12.42c0 1.54 0 4.5 3.593 4.5a3.554 3.554 0 0 0 2.602-.919 3.531 3.531 0 0 0 1.15-2.501h4.566a4.433 4.433 0 0 1 3.124 1.256 4.403 4.403 0 0 1 1.331 3.084ZM77.586 2.89c1.776 2.23 2.007 3.85 2.007 6.93v13.43H72.9V10.83c0-1.54 0-4.49-3.592-4.49a3.544 3.544 0 0 0-2.606.915 3.52 3.52 0 0 0-1.147 2.505h-4.566a4.443 4.443 0 0 1-3.13-1.26 4.413 4.413 0 0 1-1.335-3.09V.76h8.95v1.9C66.92.28 69.419.06 71.005.06c1.374 0 4.595.33 6.582 2.83Z"
        />
      </svg>